<svg width="13" height="15" viewBox="0 0 13 15" fill="none" xmlns="http://www.w3.org/2000/svg">
<path d="M10.934 3.017H9.82799C9.73228 2.19654 9.34227 1.43862 8.73028 0.883826C8.1183 0.329032 7.32588 0.015009 6.49999 0C5.6741 0.015009 4.88167 0.329032 4.26969 0.883826C3.6577 1.43862 3.26769 2.19654 3.17199 3.017H2.06599C1.52121 3.01779 0.998973 3.23456 0.613758 3.61977C0.228543 4.00499 0.0117799 4.52722 0.0109863 5.072V12.937C0.0117805 13.4819 0.228681 14.0043 0.614112 14.3896C0.999544 14.7748 1.52204 14.9915 2.06699 14.992H10.934C11.4789 14.9915 12.0014 14.7748 12.3869 14.3896C12.7723 14.0043 12.9892 13.4819 12.99 12.937V5.072C12.9892 4.52705 12.7723 4.00466 12.3869 3.61942C12.0014 3.23418 11.4789 3.01753 10.934 3.017ZM6.49999 1C7.06227 1.01221 7.60262 1.22044 8.02769 1.58872C8.45275 1.957 8.73582 2.46219 8.82799 3.017H4.17199C4.26415 2.46219 4.54722 1.957 4.97229 1.58872C5.39735 1.22044 5.93771 1.01221 6.49999 1ZM12.011 12.938C12.0107 13.2236 11.8972 13.4975 11.6953 13.6996C11.4934 13.9017 11.2196 14.0155 10.934 14.016H2.06599C1.78034 14.0155 1.50655 13.9017 1.30466 13.6996C1.10277 13.4975 0.98925 13.2236 0.988986 12.938V5.072C0.989515 4.78652 1.10315 4.51289 1.30502 4.31103C1.50688 4.10917 1.78051 3.99553 2.06599 3.995H10.933C11.2186 3.99553 11.4924 4.10931 11.6943 4.31138C11.8962 4.51346 12.0097 4.78735 12.01 5.073L12.011 12.938Z" fill="#0066CC"/>
</svg>
