<svg width="15" height="17" viewBox="0 0 15 17" fill="none" xmlns="http://www.w3.org/2000/svg">
<path d="M13.895 3.63798L8.39501 0.887976C8.11711 0.749699 7.81092 0.677734 7.50051 0.677734C7.1901 0.677734 6.88392 0.749699 6.60601 0.887976L1.10601 3.63798C0.772891 3.80302 0.492691 4.05811 0.2972 4.37433C0.101709 4.69054 -0.00124653 5.05521 1.31616e-05 5.42698V11.573C-0.00133866 11.9446 0.101468 12.3092 0.296775 12.6254C0.492083 12.9416 0.772078 13.1968 1.10501 13.362L6.60501 16.112C6.88299 16.25 7.18915 16.3219 7.49951 16.3219C7.80988 16.3219 8.11604 16.25 8.39401 16.112L13.894 13.362C14.2271 13.1969 14.5073 12.9418 14.7028 12.6256C14.8983 12.3094 15.0013 11.9447 15 11.573V5.42698C15.0014 5.05532 14.8986 4.69072 14.7033 4.37452C14.5079 4.05831 14.2279 3.80316 13.895 3.63798ZM7.05301 1.78298C7.19206 1.71383 7.34523 1.67785 7.50051 1.67785C7.6558 1.67785 7.80897 1.71383 7.94801 1.78298L13.441 4.52998L10.9 5.97998L5.18901 2.71398L7.05301 1.78298ZM7.50001 7.92498L1.55901 4.52998L4.11501 3.25198L9.89601 6.55198L7.50001 7.92498ZM1.55301 12.467C1.38693 12.384 1.24723 12.2564 1.14957 12.0985C1.0519 11.9406 1.00011 11.7586 1.00001 11.573V5.42698C1.00001 5.40598 1.00701 5.38698 1.00801 5.36598L7.00001 8.79098V15.191L1.55301 12.467ZM14 11.573C14.0001 11.7588 13.9484 11.941 13.8507 12.0991C13.753 12.2572 13.6132 12.3849 13.447 12.468L8.00001 15.191V8.79098L13.992 5.36698C13.992 5.38798 14 5.40698 14 5.42798V11.573Z" fill="#0066CC"/>
</svg>
