<svg width="15" height="15" viewBox="0 0 15 15" fill="none" xmlns="http://www.w3.org/2000/svg">
<path d="M7.48999 0.5C6.10552 0.5 4.75215 0.910543 3.601 1.67971C2.44986 2.44888 1.55265 3.54213 1.02284 4.82122C0.493023 6.1003 0.3544 7.50777 0.624496 8.86563C0.894593 10.2235 1.56128 11.4708 2.54025 12.4497C3.51921 13.4287 4.76649 14.0954 6.12436 14.3655C7.48223 14.6356 8.88969 14.497 10.1688 13.9672C11.4479 13.4373 12.5411 12.5401 13.3103 11.389C14.0795 10.2378 14.49 8.88447 14.49 7.5C14.49 5.64348 13.7525 3.86301 12.4397 2.55025C11.127 1.2375 9.34651 0.5 7.48999 0.5V0.5ZM11.933 11.518C11.464 10.583 9.65799 9.768 7.48999 9.768C5.32199 9.768 3.51599 10.583 3.04699 11.518C2.26609 10.6576 1.75183 9.5889 1.56667 8.44179C1.3815 7.29468 1.5334 6.11849 2.00392 5.05606C2.47444 3.99362 3.24332 3.09067 4.2172 2.45686C5.19107 1.82305 6.32804 1.48566 7.48999 1.48566C8.65195 1.48566 9.78891 1.82305 10.7628 2.45686C11.7367 3.09067 12.5056 3.99362 12.9761 5.05606C13.4466 6.11849 13.5985 7.29468 13.4133 8.44179C13.2282 9.5889 12.7139 10.6576 11.933 11.518V11.518Z" fill="#0066CC"/>
<path d="M7.48999 8.5C8.80167 8.5 9.86499 7.38071 9.86499 6C9.86499 4.61929 8.80167 3.5 7.48999 3.5C6.17831 3.5 5.11499 4.61929 5.11499 6C5.11499 7.38071 6.17831 8.5 7.48999 8.5Z" fill="#0066CC"/>
</svg>
