<svg width="11" height="15" viewBox="0 0 11 15" fill="none" xmlns="http://www.w3.org/2000/svg">
<path d="M7.80004 1.25C8.11817 1.25042 8.42315 1.37699 8.6481 1.60194C8.87305 1.82689 8.99962 2.13187 9.00004 2.45V13.2679L6.26224 10.5579C6.05912 10.3575 5.78519 10.2452 5.49984 10.2454C5.21448 10.2456 4.9407 10.3582 4.73784 10.5589L2.00004 13.2686V2.45C2.00046 2.13187 2.12703 1.82689 2.35198 1.60194C2.57693 1.37699 2.88191 1.25042 3.20004 1.25H7.80004ZM7.80004 0.25H3.20004C2.61656 0.25 2.05699 0.481785 1.64441 0.894365C1.23183 1.30695 1.00004 1.86652 1.00004 2.45V14.0381C0.989233 14.2265 1.04815 14.4122 1.16554 14.5599C1.2225 14.6235 1.29298 14.6736 1.37182 14.7065C1.45065 14.7394 1.53584 14.7542 1.62114 14.7499C1.75819 14.7488 1.8913 14.704 2.00114 14.622C2.18664 14.479 2.36187 14.3231 2.52554 14.1555L5.44094 11.27C5.45671 11.2545 5.47793 11.2458 5.50004 11.2458C5.52215 11.2458 5.54338 11.2545 5.55914 11.27L8.47464 14.1559C8.63972 14.3197 8.81364 14.4743 8.99564 14.619C9.10541 14.7039 9.24018 14.75 9.37894 14.7503C9.46424 14.7546 9.54943 14.7398 9.62827 14.7069C9.7071 14.674 9.77758 14.6239 9.83454 14.5603C9.95203 14.4125 10.0109 14.2266 10 14.0381V2.45C10 1.86652 9.76826 1.30695 9.35568 0.894365C8.9431 0.481785 8.38352 0.25 7.80004 0.25Z" fill="#0066CC"/>
</svg>
