<svg width="17" height="15" viewBox="0 0 17 15" fill="none" xmlns="http://www.w3.org/2000/svg">
<path d="M15.7774 7.12208L15.1231 6.86798C15.0905 6.52281 15.0308 6.18075 14.9444 5.84498L15.4718 5.38498C15.5353 5.32961 15.5806 5.25631 15.6016 5.17473C15.6227 5.09316 15.6186 5.00711 15.5899 4.9279C15.5612 4.84869 15.5091 4.78003 15.4406 4.73095C15.3722 4.68186 15.2904 4.65465 15.2062 4.65288L14.5074 4.63818C14.4332 4.48228 14.3585 4.32648 14.2706 4.17428C14.1827 4.02208 14.0855 3.87898 13.9879 3.73648L14.3253 3.12488C14.3658 3.05112 14.3832 2.96682 14.375 2.88304C14.3668 2.79926 14.3335 2.71991 14.2795 2.65538C14.2254 2.59085 14.1531 2.54416 14.0721 2.52142C13.991 2.49869 13.905 2.50097 13.8253 2.52798L13.1637 2.75348C12.9164 2.51044 12.6502 2.28731 12.3678 2.08618L12.4762 1.39258C12.4893 1.30928 12.4769 1.22396 12.4406 1.14785C12.4044 1.07174 12.3459 1.0084 12.2729 0.966184C12.1999 0.923966 12.1158 0.904847 12.0317 0.911343C11.9477 0.917839 11.8675 0.949647 11.8019 1.00258L11.253 1.44468C10.9392 1.30138 10.615 1.1824 10.283 1.08878L10.1473 0.396977C10.131 0.314256 10.0901 0.238398 10.0299 0.179384C9.96968 0.12037 9.89302 0.0809659 9.80999 0.0663556C9.72696 0.0517453 9.64145 0.0626139 9.56471 0.097531C9.48798 0.132448 9.42361 0.189778 9.38009 0.261977L9.01579 0.864877C8.67359 0.839797 8.32997 0.841167 7.98799 0.868977L7.62009 0.258977C7.57655 0.186732 7.51215 0.129362 7.43538 0.094417C7.35861 0.0594716 7.27306 0.0485882 7.18998 0.0631989C7.10691 0.0778097 7.0302 0.11723 6.96996 0.176272C6.90972 0.235314 6.86876 0.311212 6.85249 0.393977L6.71579 1.09218C6.38485 1.18183 6.06144 1.29722 5.74849 1.43728L5.20009 0.993477C5.13453 0.940421 5.05445 0.908472 4.97038 0.901838C4.88631 0.895204 4.8022 0.914196 4.72914 0.956314C4.65608 0.998431 4.59749 1.0617 4.5611 1.13777C4.52471 1.21385 4.51222 1.29916 4.52529 1.38248L4.63419 2.07938C4.35583 2.27983 4.09362 2.50181 3.84999 2.74328L3.17759 2.51208C3.09784 2.48472 3.01169 2.48213 2.93045 2.50467C2.84921 2.5272 2.7767 2.57379 2.72244 2.63832C2.66818 2.70284 2.63473 2.78228 2.62647 2.86618C2.61822 2.95008 2.63555 3.03451 2.67619 3.10838L3.01939 3.73148C2.82361 4.01379 2.64999 4.31085 2.50009 4.61998L1.79649 4.63258C1.71221 4.63412 1.63038 4.66112 1.56174 4.71004C1.49311 4.75896 1.44088 4.8275 1.41193 4.90665C1.38297 4.98581 1.37865 5.07188 1.39952 5.15354C1.4204 5.2352 1.4655 5.30863 1.52889 5.36418L2.05969 5.82838C1.97391 6.16243 1.9143 6.50266 1.88139 6.84598L1.22369 7.09908C1.145 7.12934 1.07731 7.18272 1.02954 7.25219C0.981772 7.32166 0.956152 7.40396 0.956055 7.48827C0.955958 7.57258 0.981387 7.65494 1.029 7.72452C1.07661 7.7941 1.14417 7.84763 1.22279 7.87808L1.87709 8.13208C1.90966 8.47728 1.96942 8.81937 2.05579 9.15518L1.52839 9.61458C1.46489 9.66996 1.41964 9.74326 1.39857 9.82484C1.3775 9.90642 1.3816 9.99247 1.41033 10.0717C1.43906 10.1509 1.49108 10.2195 1.55955 10.2686C1.62802 10.3177 1.70975 10.345 1.79399 10.3468L2.49279 10.3615C2.56699 10.5176 2.64169 10.6736 2.72959 10.8259C2.81749 10.9782 2.91959 11.113 3.01719 11.2548L2.67489 11.8748C2.63427 11.9485 2.61689 12.0328 2.62504 12.1166C2.63319 12.2005 2.66649 12.2798 2.72056 12.3444C2.77462 12.4089 2.84694 12.4556 2.92802 12.4783C3.0091 12.5011 3.09515 12.4987 3.17489 12.4717L3.82919 12.2487C4.07919 12.4902 4.34793 12.7116 4.63289 12.9108L4.52399 13.6072C4.51084 13.6905 4.52323 13.7758 4.55952 13.8519C4.59582 13.928 4.65431 13.9914 4.7273 14.0336C4.8003 14.0758 4.88437 14.0949 4.96844 14.0884C5.05251 14.0819 5.13264 14.0501 5.19829 13.9972L5.75249 13.5511C6.06415 13.6945 6.38641 13.8136 6.71639 13.9075L6.85259 14.6028C6.86883 14.6855 6.90973 14.7613 6.96991 14.8204C7.03009 14.8794 7.10673 14.9188 7.18974 14.9335C7.27275 14.9481 7.35825 14.9373 7.435 14.9024C7.51174 14.8675 7.57612 14.8102 7.61969 14.7381L7.99029 14.1247C8.16369 14.1383 8.33649 14.1584 8.51129 14.1584C8.67729 14.1584 8.84339 14.139 9.00939 14.1265L9.37939 14.7412C9.42293 14.8134 9.48732 14.8708 9.56409 14.9057C9.64086 14.9407 9.72641 14.9516 9.80949 14.937C9.89256 14.9223 9.96927 14.8829 10.0295 14.8239C10.0898 14.7648 10.1307 14.6889 10.147 14.6062L10.2832 13.9118C10.6119 13.8181 10.9328 13.6991 11.2432 13.556L11.8003 14.0067C11.8658 14.0597 11.9459 14.0917 12.03 14.0983C12.1141 14.105 12.1982 14.086 12.2713 14.0438C12.3444 14.0017 12.4029 13.9384 12.4393 13.8623C12.4757 13.7862 12.4882 13.7009 12.4751 13.6176L12.3662 12.9208C12.6445 12.7203 12.9067 12.4983 13.1504 12.2569L13.8228 12.4881C13.9025 12.5155 13.9887 12.518 14.07 12.4955C14.1512 12.473 14.2238 12.4264 14.278 12.3618C14.3323 12.2973 14.3657 12.2178 14.374 12.1339C14.3822 12.05 14.3649 11.9655 14.3242 11.8917L13.981 11.2687C14.1767 10.9863 14.3502 10.6891 14.5001 10.38L15.2037 10.3674C15.288 10.3659 15.3698 10.3389 15.4385 10.2899C15.5072 10.241 15.5594 10.1725 15.5884 10.0933C15.6173 10.0141 15.6216 9.92801 15.6007 9.84633C15.5798 9.76466 15.5347 9.69122 15.4713 9.63568L14.9405 9.17158C15.0263 8.83752 15.0859 8.49729 15.1188 8.15398L15.7765 7.90078C15.8551 7.8705 15.9227 7.81713 15.9705 7.74769C16.0182 7.67826 16.0438 7.596 16.0439 7.51174C16.044 7.42747 16.0186 7.34516 15.971 7.27561C15.9235 7.20606 15.8559 7.15253 15.7774 7.12208ZM8.49009 1.94138C9.88069 1.93541 11.2226 2.45286 12.2492 3.39089C13.2758 4.32893 13.9119 5.61888 14.0311 7.00438L10.3871 7.00128C10.346 6.8335 10.2824 6.67204 10.1981 6.52128C9.9815 6.14812 9.64772 5.85695 9.24862 5.69302C8.84951 5.52909 8.40743 5.50158 7.99109 5.61478L6.17389 2.46198C6.89906 2.12251 7.6894 1.94487 8.49009 1.94138ZM8.27629 8.33078C8.07464 8.27685 7.8995 8.15142 7.7835 7.97789C7.66751 7.80436 7.61858 7.59456 7.64585 7.38762C7.67312 7.18068 7.77472 6.99072 7.93171 6.85316C8.0887 6.7156 8.29036 6.63983 8.49909 6.63998C8.57494 6.6401 8.65045 6.65019 8.72369 6.66998C8.88781 6.71436 9.03512 6.80635 9.14701 6.93436C9.25891 7.06237 9.3304 7.22064 9.35244 7.38923C9.37449 7.55781 9.34611 7.72915 9.27089 7.88163C9.19567 8.0341 9.07698 8.16088 8.92979 8.24598C8.73181 8.35956 8.49689 8.39005 8.27649 8.33078H8.27629ZM5.30279 2.95468L7.12409 6.11468C6.93985 6.29553 6.7934 6.51122 6.69327 6.74918C6.59314 6.98715 6.54133 7.24265 6.54083 7.50082C6.54034 7.75899 6.59118 8.01468 6.6904 8.25303C6.78962 8.49138 6.93524 8.70762 7.11879 8.88918L5.29799 12.0379C4.56817 11.5262 3.97246 10.8462 3.56134 10.0554C3.15021 9.26459 2.9358 8.38632 2.93627 7.49503C2.93675 6.60374 3.15209 5.7257 3.56404 4.93532C3.976 4.14495 4.57243 3.46554 5.30279 2.95468ZM11.2765 12.3169C10.5043 12.7607 9.63686 13.0125 8.74709 13.051C7.85732 13.0896 6.97132 12.9138 6.16369 12.5384L7.98549 9.38838C8.23467 9.45715 8.49503 9.47575 8.75146 9.44312C9.0079 9.41049 9.2553 9.32726 9.47932 9.19828C9.70334 9.06929 9.89952 8.89711 10.0565 8.69172C10.2134 8.48632 10.3281 8.25181 10.3937 8.00178L14.0309 8.00488C13.9512 8.89183 13.6594 9.7466 13.18 10.4971C12.7006 11.2476 12.0477 11.8717 11.2765 12.3169Z" fill="#0066CC"/>
</svg>
